<?xml version="1.0" encoding="iso-8859-1"?>
<!-- Generator: Adobe Illustrator 19.0.0, SVG Export Plug-In . SVG Version: 6.00 Build 0)  -->
<svg version="1.1" id="Layer_1" xmlns="http://www.w3.org/2000/svg" xmlns:xlink="http://www.w3.org/1999/xlink" x="0px" y="0px"
	 viewBox="0 0 512 512" style="enable-background:new 0 0 512 512;" xml:space="preserve">
<g>
	<g>
		<path style="color:#fafafa" d="M406.261,247.741v-97.48C406.261,67.407,338.854,0,256,0S105.739,67.407,105.739,150.261v97.48
			c-19.433,6.892-33.391,25.45-33.391,47.215v166.956c0,27.618,22.469,50.087,50.087,50.087h267.13
			c27.618,0,50.087-22.469,50.087-50.087V294.957C439.652,273.191,425.693,254.633,406.261,247.741z M139.13,150.261
			c0-64.442,52.428-116.87,116.87-116.87s116.87,52.428,116.87,116.87v94.609h-33.391v-94.609c0-46.03-37.448-83.478-83.478-83.478
			s-83.478,37.448-83.478,83.478v94.609H139.13V150.261z M306.087,150.261v94.609H205.913v-94.609
			c0-27.618,22.469-50.087,50.087-50.087C283.618,100.174,306.087,122.643,306.087,150.261z M406.261,461.913
			c0,9.206-7.49,16.696-16.696,16.696h-267.13c-9.206,0-16.696-7.49-16.696-16.696V294.957c0-9.206,7.49-16.696,16.696-16.696
			c6.786,0,249.266,0,267.13,0c9.206,0,16.696,7.49,16.696,16.696V461.913z"/>
	</g>
</g>
<g>
	<g>
		<path d="M256,311.652c-18.412,0-33.391,14.979-33.391,33.391c0,12.333,6.725,23.117,16.696,28.899v54.579
			c0,9.22,7.475,16.696,16.696,16.696s16.696-7.475,16.696-16.696v-54.579c9.971-5.782,16.696-16.567,16.696-28.899
			C289.391,326.632,274.412,311.652,256,311.652z"/>
	</g>
</g>
<g>
</g>
<g>
</g>
<g>
</g>
<g>
</g>
<g>
</g>
<g>
</g>
<g>
</g>
<g>
</g>
<g>
</g>
<g>
</g>
<g>
</g>
<g>
</g>
<g>
</g>
<g>
</g>
<g>
</g>
</svg>
