<?xml version="1.0" encoding="iso-8859-1"?>
<!-- Generator: Adobe Illustrator 19.0.0, SVG Export Plug-In . SVG Version: 6.00 Build 0)  -->
<svg version="1.1" id="Layer_1" xmlns="http://www.w3.org/2000/svg" xmlns:xlink="http://www.w3.org/1999/xlink" x="0px" y="0px"
	 viewBox="0 0 512 512" style="enable-background:new 0 0 512 512;" xml:space="preserve">
<g>
	<g>
		<path d="M356.174,0C273.32,0,205.913,67.407,205.913,150.261v94.609H55.652c-27.618,0-50.087,22.469-50.087,50.087v166.956
			C5.565,489.531,28.034,512,55.652,512h267.13c27.618,0,50.087-22.469,50.087-50.087V294.957c0-27.618-22.469-50.087-50.087-50.087
			h-16.696v-94.609c0-27.618,22.469-50.087,50.087-50.087c27.618,0,50.087,22.469,50.087,50.087v111.304
			c0,9.22,7.475,16.696,16.696,16.696h66.783c9.22,0,16.696-7.475,16.696-16.696V150.261C506.435,67.407,439.028,0,356.174,0z
			 M322.783,278.261c9.206,0,16.696,7.49,16.696,16.696v166.956c0,9.206-7.49,16.696-16.696,16.696H55.652
			c-9.206,0-16.696-7.49-16.696-16.696V294.957c0-9.206,7.49-16.696,16.696-16.696C61.968,278.261,316.371,278.261,322.783,278.261z
			 M473.043,244.87h-33.391v-94.609c0-46.03-37.448-83.478-83.478-83.478c-46.03,0-83.478,37.448-83.478,83.478v94.609h-33.391
			v-94.609c0-64.442,52.428-116.87,116.869-116.87s116.87,52.428,116.87,116.87V244.87z"/>
	</g>
</g>
<g>
	<g>
		<path d="M189.217,311.652c-18.412,0-33.391,14.979-33.391,33.391c0,12.333,6.725,23.117,16.696,28.899v54.579
			c0,9.22,7.475,16.696,16.696,16.696s16.696-7.475,16.696-16.696v-54.579c9.971-5.782,16.696-16.567,16.696-28.899
			C222.609,326.632,207.629,311.652,189.217,311.652z"/>
	</g>
</g>
<g>
</g>
<g>
</g>
<g>
</g>
<g>
</g>
<g>
</g>
<g>
</g>
<g>
</g>
<g>
</g>
<g>
</g>
<g>
</g>
<g>
</g>
<g>
</g>
<g>
</g>
<g>
</g>
<g>
</g>
</svg>
